<?xml version="1.0" encoding="utf-8"?>
<!-- Generator: Adobe Illustrator 25.0.0, SVG Export Plug-In . SVG Version: 6.00 Build 0)  -->
<svg version="1.1" id="Ebene_1" xmlns="http://www.w3.org/2000/svg" xmlns:xlink="http://www.w3.org/1999/xlink" x="0px" y="0px"
	 viewBox="0 0 173 173" style="enable-background:new 0 0 173 173;" xml:space="preserve">
<style type="text/css">
	.st0{fill:#276002;}
</style>
<g transform="translate(0.000000,173.000000) scale(0.100000,-0.100000)">
	<path class="st0" d="M870,1658c0-64-14-155-41-263c-10-44-21-89-23-100c-3-11-12-51-21-90c-36-149-44-220-40-335
		c3-99,22-238,42-317c3-14,1-23-6-23c-6,0-11,5-11,10c0,22-100,212-149,283c-76,109-184,206-301,268c-25,13-85,54-134,91
		c-92,71-126,86-105,47c6-12,35-58,64-103c29-44,56-92,60-106c17-56,108-217,136-240c3-3,29-32,56-65c54-65,212-223,238-237
		c8-5,15-13,15-17c0-5-42,8-92,27c-115,44-166,48-294,28c-56-9-132-16-169-16c-81,0-83-15-4-42c30-10,92-38,139-62
		c144-73,196-85,388-88c67-2,122-3,122-4s-29-16-64-32C585,229,409,94,432,85s246,42,281,64c18,11,45,33,61,50c25,26,37,31,77,31
		c39,0,54-6,95-39c54-42,127-81,189-101c22-7,66-24,98-38c31-14,60-22,64-19c3,4-15,29-40,56c-26,28-47,54-47,58
		c-1,31-137,133-177,133c-7,0-13,4-13,8c0,5,55,12,123,15c137,7,194,20,282,64c33,16,103,47,155,68s99,42,105,47c7,6-51,13-85,10
		c-3,0-71,5-150,12s-160,11-180,9c-43-6-153-47-199-74c-50-30-48-17,6,31c215,190,269,260,392,509c45,89,78,142,121,189
		c98,106,77,110-60,12c-247-177-301-219-380-299c-59-60-99-112-130-169c-67-123-70-125-44-27c13,49,26,107,29,130c4,22,10,54,14,70
		c22,84,8,217-40,400c-51,192-61,238-73,329C893,1717,870,1746,870,1658z"/>
</g>
</svg>
