<?xml version="1.0" encoding="utf-8"?>
<!-- Generator: Adobe Illustrator 23.0.2, SVG Export Plug-In . SVG Version: 6.00 Build 0)  -->
<svg version="1.1" xmlns="http://www.w3.org/2000/svg" xmlns:xlink="http://www.w3.org/1999/xlink" x="0px" y="0px"
	 viewBox="0 0 257.9 255.9" style="enable-background:new 0 0 257.9 255.9;" xml:space="preserve">
<style type="text/css">
	.st0{opacity:0.8;}
	.st1{fill:#FFFFFF;}
</style>
<g id="Ebene_1">
</g>
<g id="Ebene_2">
	<g class="st0">
		<path class="st1" d="M131.4,4.4c0,0,6.7,34.1,10.4,44.9c5.9,17.4,9.6,36.2,9.1,64c-0.4,19.8-4.3,52.2-12.4,80.8
			c-0.7,2.2-1,3.4-1,3.4c0.3-1.1,0.7-2.3,1-3.4c2.7-8.7,11.1-32.9,27.9-57c9.1-13.1,26.4-23.6,42.3-35.5
			c12.2-9.1,21.5-13.8,39.9-27.3c0,0-0.5,5.2-8.1,12.4c-4.8,4.7-9.6,11-14.9,20.1c-7,12.1-13.4,29.5-23.6,44.6
			c-14.2,21-31.8,36.3-55.9,52.9c0,0,12.1-7.3,39.7-17c3.3-1.2,6.9-1.6,10.9-1.6c8.5,0,18.3,1.9,28.5,2.5c7.3,0.4,15.3,1.1,23.5,1.1
			c1.8,0,3.5,0,5.3-0.1c0,0,1.8,1.3-26.5,12.9c-8,3.3-15.4,9.4-26.9,12.8c-9.4,2.8-22.4,3.5-36.8,3.5c-5.6,0-11.5-0.1-17.4-0.2
			c0,0,11.9,1.9,23.2,9.1c0,0,18.8,9.7,23.8,24.4c0,0-1.6,0.2-4.3,0.2c-4.1,0-10.8-0.5-17.6-2.9c-12.2-4.3-23.4-8.2-34.2-20l-8,1.9
			l-8.7-1.9c0,0-13.4,22-51.6,22c-1.5,0-3,0-4.5-0.1c0,0,10.4-21.2,49.2-33.2c0,0-1.3,0-3.7,0c-9,0-32.5-0.3-49.4-3.2
			c-11.1-1.9-25.5-10.8-37.2-16.6C12.6,192.4,4,189.8,4,189.8s10.6-0.6,26.8-2.4c7.6-0.8,16-3.7,25.8-3.7c0.1,0,0.2,0,0.3,0
			c0,0,25.3,0.8,54.9,19.7c0.9,0.6,1.4,0.9,1.4,0.9l0,0c-0.5-0.3-0.9-0.6-1.4-0.9c-6.8-4.5-37.5-25.8-62.5-59.9
			c-10-13.6-16-29.6-24.8-47.3c-3.7-7.3-10.5-13.8-13.6-21.8c0,0,0.1-0.3,0.8-0.3c1.8,0,7.4,2,24.7,17.2c10.2,9,21.9,13,30.4,19.8
			c22.6,17.9,37.9,37.4,56,87.4c0,0-9.4-31.8-10.8-86.5c-0.5-21,1.6-41.1,8.9-62.5C124.3,39.8,131,12.3,131.4,4.4 M131.4,0.4
			c-0.1,0-0.2,0-0.3,0c-2,0.1-3.6,1.8-3.7,3.8c-0.3,7.2-6.8,34-10.3,44.3c-6.8,19.9-9.7,40.2-9.1,63.9c0.5,19.5,2,36.1,3.7,49.4
			c-13-26.6-25.9-40.5-42.5-53.6c-4-3.2-8.4-5.7-13.2-8.3c-5.7-3.2-11.7-6.6-17.1-11.3C18.2,70.4,13.4,70.4,11.6,70.4
			c-1.9,0-3.5,0.9-4.3,2.4c-0.5,1-0.6,2.2-0.2,3.3c1.9,4.9,5,9.2,8,13.3c2.2,3,4.2,5.9,5.7,8.8c2.6,5.2,4.9,10.2,7.2,15.1
			c5.5,11.8,10.7,22.9,18,32.8c11.5,15.7,24.2,28.7,35.4,38.7c-14.1-4.5-23.8-4.9-24.4-4.9c0,0-0.1,0-0.1,0l-0.3,0
			c-6.5,0-12.5,1.2-17.8,2.2c-3,0.6-5.8,1.2-8.5,1.5c-15.9,1.7-26.5,2.3-26.6,2.3c-1.9,0.1-3.5,1.6-3.8,3.5s1,3.7,2.8,4.3
			c0.1,0,8.4,2.5,18.7,7.7c2.7,1.3,5.4,2.8,8.4,4.4c10.2,5.4,20.8,11,29.9,12.6c10.3,1.8,23,2.6,33.5,3
			c-24.6,12.2-32.2,27-32.5,27.8c-0.6,1.2-0.5,2.6,0.1,3.8c0.7,1.2,1.9,1.9,3.3,2c1.6,0.1,3.2,0.1,4.7,0.1
			c32.8,0,48.4-15.5,53.3-21.6l6.2,1.3c0.3,0.1,0.6,0.1,0.8,0.1c0.3,0,0.6,0,0.9-0.1l5.8-1.4c10.8,11.1,21.9,15.1,33.7,19.2l0.5,0.2
			c7.3,2.6,14.3,3.1,19,3.1c2.8,0,4.6-0.2,4.7-0.2c1.2-0.1,2.3-0.8,2.9-1.8c0.6-1,0.8-2.3,0.4-3.4c-5.2-15.4-23.5-25.5-25.6-26.6
			c-0.8-0.5-1.6-1-2.4-1.4c10.9-0.1,23.2-0.9,32.6-3.6c7.5-2.2,13.3-5.5,18.4-8.4c3.1-1.7,6-3.4,8.9-4.6
			c10.6-4.3,18.3-7.8,22.9-10.2c3.9-2.1,5.8-3.5,6.1-5.8c0.2-1.5-0.4-2.9-1.6-3.8c-0.7-0.5-1.5-0.8-2.4-0.8c0,0-0.1,0-0.1,0
			c-1.6,0.1-3.4,0.1-5.1,0.1c-6.7,0-13.2-0.4-19.5-0.8c-1.3-0.1-2.5-0.2-3.8-0.2c-4.3-0.3-8.6-0.8-12.7-1.3c-5.7-0.7-11-1.3-16-1.3
			c-4.8,0-8.8,0.6-12.2,1.8c-3.2,1.1-6.1,2.2-8.9,3.2c12.2-10.6,21.6-21.1,29.7-33.1c6.4-9.4,11.4-19.8,15.8-29
			c2.8-5.8,5.4-11.3,8-15.8c4.9-8.4,9.5-14.7,14.2-19.3c8.3-8.1,9.2-14.2,9.2-14.9c0.2-1.6-0.6-3.1-2-3.9c-0.6-0.4-1.3-0.5-2-0.5
			c-0.8,0-1.7,0.3-2.4,0.8c-9.7,7.1-16.9,11.8-23.2,15.9C217,90.7,212,94,206.1,98.4c-3.4,2.6-7,5.1-10.4,7.5
			c-13,9.3-25.3,18.1-32.8,28.9c-4.6,6.6-8.6,13.2-12,19.5c2.5-16.1,3.6-30.7,3.9-41c0.5-25.3-2.2-44.8-9.3-65.4
			c-3.6-10.4-10.2-44-10.2-44.4C134.9,1.7,133.3,0.4,131.4,0.4L131.4,0.4z"/>
	</g>
</g>
</svg>
