<?xml version="1.0" encoding="utf-8"?>
<!-- Generator: Adobe Illustrator 22.1.0, SVG Export Plug-In . SVG Version: 6.00 Build 0)  -->
<svg version="1.1" id="Ebene_1" xmlns="http://www.w3.org/2000/svg" xmlns:xlink="http://www.w3.org/1999/xlink" x="0px" y="0px"
	 viewBox="0 0 230.4 111.2" style="enable-background:new 0 0 230.4 111.2;" xml:space="preserve">
<style type="text/css">
	.st0{fill:none;stroke:#ffffff;stroke-width:2;stroke-linecap:round;stroke-linejoin:round;stroke-miterlimit:10;}
	.st1{fill:#ffffff;stroke:#ffffff;stroke-width:2;stroke-linecap:round;stroke-linejoin:round;stroke-miterlimit:10;}
	.st2{fill:#ffffff;stroke:#ffffff;stroke-miterlimit:10;}
	.st3{fill:#ffffff;stroke:#ffffff;stroke-width:2;stroke-miterlimit:10;}
</style>
<g id="Ebene_2_1_">
	<polygon class="st0" points="24.6,0.5 24.3,17.5 47.3,31 47.6,57.8 25.1,70.8 1.6,57.2 1.3,31.2 24.3,17.5 	"/>
</g>
<g id="Ebene_5">
	<polygon class="st0" points="92.6,40.5 92.3,57.5 115.3,71 115.6,97.8 93.1,110.8 69.6,97.2 69.3,71.2 92.3,57.5 	"/>
	<polyline class="st0" points="116.1,97 138.2,109.7 161,96.6 183.7,109.6 207,96.8 229.9,110.2 	"/>
</g>
<g id="Ebene_10">
	<line class="st1" x1="23.3" y1="21.4" x2="43.9" y2="33.7"/>
	<line class="st1" x1="73.1" y1="71.9" x2="73.1" y2="95.8"/>
	<line class="st1" x1="92" y1="106.8" x2="112.4" y2="94.5"/>
	<line class="st1" x1="112.4" y1="73" x2="91.8" y2="60.9"/>
</g>
<g id="Ebene_7">
	<line class="st1" x1="69.6" y1="97.2" x2="53.4" y2="106.6"/>
</g>
<g id="Ebene_8">
	<line class="st1" x1="22.6" y1="75" x2="24.6" y2="75"/>
	<line class="st1" x1="21.9" y1="79.5" x2="26.2" y2="79.5"/>
	<line class="st1" x1="21.1" y1="83.9" x2="26.9" y2="83.9"/>
	<line class="st1" x1="20.5" y1="88.5" x2="27.6" y2="88.5"/>
	<line class="st1" x1="19.4" y1="93" x2="28.9" y2="93"/>
</g>
<g id="Ebene_9">
	<line class="st1" x1="0.7" y1="83.8" x2="40.1" y2="106.5"/>
</g>
<g id="Ebene_6">
</g>
<g id="Ebene_3">
	<polygon class="st2" points="47.4,56.6 74.6,68.6 69.7,71.4 69.7,76.9 46.6,58 	"/>
</g>
<g id="Ebene_11">
	<line class="st3" x1="0.2" y1="110.5" x2="23.5" y2="97.3"/>
</g>
<g id="Ebene_4">
</g>
</svg>
