<?xml version="1.0" encoding="utf-8"?>
<!-- Generator: Adobe Illustrator 22.1.0, SVG Export Plug-In . SVG Version: 6.00 Build 0)  -->
<svg version="1.1" id="Capa_1" xmlns="http://www.w3.org/2000/svg" xmlns:xlink="http://www.w3.org/1999/xlink" x="0px" y="0px"
	 viewBox="0 0 20.1 20" style="enable-background:new 0 0 20.1 20;" xml:space="preserve">
<g>
	<path d="M19.8,8.8C19.6,7.2,19,5.7,18,4.3c-1.6-2.1-3.7-3.5-6.3-3.9c-0.5-0.1-1.1-0.1-1.6-0.2c0,0-0.1,0-0.1,0
		C9.5,0.3,9,0.3,8.5,0.4C3.5,1.2-0.2,6,0.4,11.1c0.3,2.4,1.3,4.5,3.1,6.1c2.1,2,4.7,2.8,7.6,2.5c2.2-0.2,4.2-1.1,5.8-2.7
		C19.1,14.8,20.1,12,19.8,8.8z M17.7,13.8c-0.2-0.4-0.6-1-0.7-1.5c-0.2-0.7-0.7,0-0.7,0.5c0,0.5-0.4,0.8-1,0.1
		c-0.6-0.7-0.8-0.6-1-0.6c-0.2,0-0.6,0.5-0.5,2.8c0.1,1.6,0.7,1.9,1.1,2c-0.8,0.5-1.7,1-2.7,1.2c-3.8,1-7.7-0.8-9.5-4.3
		C1,10.7,1.8,7,3.6,5c0,0.4,0.1,0.7,0.1,1c0.1,0.9,0,1.8-0.2,2.7c0,0.2,0,0.4,0,0.6c0,0.1,0.2,0.2,0.3,0.2c0.1,0,0.2-0.1,0.3-0.2
		c0.1-0.2,0.1-0.4,0.1-0.6c0-0.1,0-0.3,0-0.5c0.1,0.1,0.2,0.2,0.3,0.3C4.8,8.7,5,8.9,5.2,9.1c0.1,0.1,0.2,0.2,0.2,0.4
		c0,0.3,0.1,0.4,0.2,0.6c0.2,0.2,0.2,0.5,0.3,0.8C5.9,11,6,11.2,6,11.3c0.1,0.2,0.3,0.4,0.5,0.4c0.3,0,0.4,0.1,0.4,0.4
		c-0.1,0-0.1,0-0.2,0c-0.4,0-0.5,0.2-0.5,0.6c0,0.7,0.3,1.3,0.8,1.8c0.1,0.1,0.3,0.3,0.4,0.4c0.3,0.3,0.4,0.7,0.3,1.1
		c-0.1,0.2-0.2,0.4-0.2,0.6c0,0.2,0,0.5,0,0.7c0.1,0.2,0,0.7,0.3,0.7c0.4-0.1,0.6,0,0.7-0.5c0-0.1,0-0.1,0-0.2
		C8.4,17,9,15.8,9.3,15.5c0.3-0.2,0.6-0.4,0.8-0.6c0.4-0.3,0.5-0.7,0.4-1.2c-0.1-0.5,0-0.8,0.3-1.1c0.3-0.3,0.5-0.6,0.5-1.1
		s-0.3-0.8-0.7-0.7c-0.2,0-0.4,0.1-0.6,0.2c-0.3,0.1-0.5,0.2-0.8,0.3c-0.4,0.1-0.6-0.2-0.8-0.5c-0.1-0.3-0.2-0.3-0.4-0.1
		c-0.2,0.1-0.4,0.3-0.6,0.4c-0.2,0.1-0.3,0.1-0.5-0.1c-0.1-0.1-0.2-0.2-0.4-0.3c-0.1-0.1-0.2-0.1-0.3-0.1c-0.1-0.1-0.2-0.2-0.2-0.4
		C6,10,6.1,9.8,6.2,9.8c0.2-0.1,0.5-0.1,0.7-0.2c0.1,0,0.3-0.1,0.4-0.1c0.2-0.1,0.2-0.2,0-0.3c-0.1,0-0.1-0.1-0.2-0.1
		C6.8,9,6.4,8.9,6.1,8.7C6,8.7,5.9,8.6,5.8,8.6c-0.2-0.1-0.3-0.3,0-0.5c0.8-0.7,1.7-0.9,2.6,0c0.3,0.3,0.4,0.7,0.7,1
		c0.2,0.2,0.4,0.5,0.7,0.7c0.1,0.1,0.3,0.1,0.4,0c0.2-0.1,0.2-0.3,0.1-0.5C10.1,9.1,10,9,9.9,8.9c-0.5-0.6-0.4-1.8,0.5-2.3
		c0.3-0.2,0.6-0.3,0.8-0.8c-0.2,0-0.3,0.1-0.4,0.1c-0.7,0.2-0.2-0.3,0.1-0.4c0.2-0.1-0.2-0.2-0.2-0.2c0,0,0.2-0.1,0.5-0.2
		c0.2-0.1,0.4-0.2,0.5-0.3c0.1-0.1,0.1-0.2,0.2-0.4c0,0,0,0,0-0.1c-0.2,0-0.4,0.1-0.6,0.1c-0.3,0-0.4,0-0.4-0.3
		c0-0.2-0.2-0.3-0.4-0.2C10.3,4,10.2,4.1,10,4.2C9.7,4.4,9.5,4.3,9.4,4C9.3,3.8,9.2,3.7,9,3.8C8.9,3.9,8.8,4,8.7,4
		C8.6,4.1,8.4,4.2,8.2,4.3C8.1,4.3,7.9,4.4,7.8,4.2C7.6,4,7.7,3.8,7.9,3.7c0.2-0.2,0.4-0.3,0.6-0.4C8.8,3.1,9.1,3,9.4,2.8
		c0.2-0.1,0.3-0.4,0.2-0.6C9.6,1.9,9.5,1.9,9.3,2C9.1,2.1,8.9,2.2,8.8,2.3c-0.1,0-0.3,0-0.4,0C8.3,2.3,8.2,2.1,8.2,2
		c0,0,0.1-0.1,0.2-0.1c0.4-0.1,0.9-0.1,1.3-0.2c0.1,0,0.1,0,0.2,0.1c0.3,0.4,0.7,0.5,1.1,0.7c0.3,0.1,0.4,0.1,0.4-0.3
		c0.4-0.1,0.9-0.3,1.4,0c0.2,0.2,0.5,0.4,0.7,0.6c0.1,0.1,0,0.2,0,0.3c0,0.1-0.1,0.3-0.1,0.4c-0.1,0.3,0.1,0.5,0.4,0.5
		c0.1,0,0.2,0,0.3,0c0.3,0,0.3,0.1,0.3,0.3c0,0.4,0,0.4,0.4,0.3c0.1,0,0.2,0,0.3,0.1c0.1,0,0.1,0.1,0.2,0.1c0.3,0.3,0.6,0.2,0.7-0.3
		c0,0,0-0.1,0-0.1c0-0.2,0.1-0.2,0.3-0.1c0.3,0.3,0.5,0.6,0.8,0.9c-0.3,0.3-0.3,0.6-0.2,0.9c0.1,0.4,0,0.7-0.2,1
		c-0.1,0.3-0.3,0.6-0.4,0.9c-0.1,0.5,0,0.7,0.5,0.8c0.5,0.1,0.5,0.2,0.6,0.6c0,0.6,0.3,1,0.9,1.3c0.1,0.1,0.2,0.1,0.4,0.2
		C18.4,11.9,18.2,12.9,17.7,13.8z"/>
</g>
</svg>
