<svg class="award-svg overview-icon" xmlns="http://www.w3.org/2000/svg" viewBox="0 0 512.002 512.002" fill="#eeeeee">
  <path d="M500.159 229.199a9.587 9.587 0 0 0-11.464 1.075 329.59 329.59 0 0 1-23.472 19.277 270.593 270.593 0 0 0 4.372-16.425c14.212-8.177 25.591-21.501 33.036-38.759 6.87-15.927 10.143-34.776 9.217-53.076-.217-4.299-3.176-7.863-7.363-8.868-4.198-1.009-8.464.828-10.616 4.571a317.327 317.327 0 0 1-16.57 25.872 265.143 265.143 0 0 0-.963-20.242c-.002-.151 0-.301-.011-.453-1.619-21.534-5.588-43.117-11.797-64.148a7.519 7.519 0 1 0-14.422 4.259 296.14 296.14 0 0 1 8.738 39.272 320.297 320.297 0 0 0-23.164-20.189 9.624 9.624 0 0 0-11.297-.475 9.617 9.617 0 0 0-3.99 10.565c8.473 31.145 22.628 57.722 41.011 77.152a254.705 254.705 0 0 1-1.875 16.805 307.72 307.72 0 0 0-15.98-25.121 9.644 9.644 0 0 0-10.605-3.68 9.622 9.622 0 0 0-6.899 8.823c-.927 21.967 1.25 54.007 16.463 83.761a258.682 258.682 0 0 1-6.56 15.122 301.987 301.987 0 0 0-8.032-28.485 9.65 9.65 0 0 0-9.069-6.566h-.077a9.628 9.628 0 0 0-9.075 6.407c-10.121 28.576-13.075 58.411-8.457 84.481a256.406 256.406 0 0 1-10.746 12.651c.719-9.953.952-19.784.677-29.675a9.65 9.65 0 0 0-6.761-8.935 9.63 9.63 0 0 0-10.627 3.466c-17.986 24.386-29.718 52.086-33.316 78.439l-2.026-5.488a11.071 11.071 0 0 0-10.346-7.209h-25.362c-3.443-5.568-6.601-11.551-9.406-17.85a7.518 7.518 0 0 0-9.927-3.81 7.518 7.518 0 0 0-3.81 9.927 170.34 170.34 0 0 0 5.774 11.733h-58.72c11.809-21.87 17.838-45.073 20.904-63.537 2.799.491 5.629.745 8.46.745 2.835 0 5.669-.255 8.473-.747.938 5.669 2.046 11.259 3.345 16.682a7.52 7.52 0 0 0 9.064 5.56 7.518 7.518 0 0 0 5.56-9.064 226.727 226.727 0 0 1-3.542-18.113 50.139 50.139 0 0 0 6.391-3.999 128.4 128.4 0 0 0 20.936-19.385c19.009-1.56 37.251-9.019 52.115-21.668 20.741-17.65 32.636-43.388 32.636-70.614v-25.425c0-2.939-1.146-5.701-3.227-7.777a10.905 10.905 0 0 0-7.753-3.206h-.029l-42.055.092v-4.05c5.501-1.031 9.68-5.863 9.68-11.659v-18.032c0-6.545-5.325-11.87-11.87-11.87H176.276c-6.545 0-11.87 5.325-11.87 11.87v18.032c0 5.796 4.179 10.627 9.68 11.659v4.05l-42.053-.092h-.029a10.915 10.915 0 0 0-7.755 3.206 10.912 10.912 0 0 0-3.227 7.777v25.425c0 27.226 11.895 52.964 32.636 70.614 14.866 12.65 33.106 20.108 52.116 21.668a128.44 128.44 0 0 0 20.936 19.385 50.168 50.168 0 0 0 6.393 4c-3.031 19.577-9.608 45.467-23.828 68.472h-24.694c-4.596 0-8.754 2.897-10.347 7.211l-2.251 6.099-.4-.275c-3.544-26.454-15.296-54.287-33.359-78.777a9.633 9.633 0 0 0-10.627-3.466 9.65 9.65 0 0 0-6.761 8.935 296.427 296.427 0 0 0 .676 29.675 256.884 256.884 0 0 1-10.746-12.652c4.619-26.07 1.664-55.905-8.457-84.48a9.617 9.617 0 0 0-9.153-6.408 9.653 9.653 0 0 0-9.07 6.568 301.947 301.947 0 0 0-8.032 28.483 258.006 258.006 0 0 1-6.56-15.122c15.213-29.755 17.39-61.793 16.463-83.76a9.623 9.623 0 0 0-6.899-8.824 9.648 9.648 0 0 0-10.605 3.679 307.126 307.126 0 0 0-15.98 25.122 255.336 255.336 0 0 1-1.875-16.806c18.383-19.429 32.537-46.006 41.011-77.152a9.617 9.617 0 0 0-3.992-10.565 9.626 9.626 0 0 0-11.294.475 320.313 320.313 0 0 0-23.165 20.189 296.018 296.018 0 0 1 8.738-39.272 7.52 7.52 0 1 0-14.422-4.259c-6.21 21.035-10.179 42.616-11.797 64.148-.011.149-.008.296-.011.444a264.91 264.91 0 0 0-.964 20.251 317.866 317.866 0 0 1-16.57-25.872c-2.151-3.742-6.42-5.58-10.613-4.571-4.187 1.004-7.147 4.567-7.365 8.867-.927 18.301 2.347 37.151 9.217 53.077 7.445 17.258 18.824 30.582 33.036 38.759a271.575 271.575 0 0 0 4.373 16.426 329.702 329.702 0 0 1-23.474-19.279 9.585 9.585 0 0 0-11.464-1.074 9.563 9.563 0 0 0-4.317 10.644c8.188 31.484 31.934 65.891 66.938 73.821a272.542 272.542 0 0 0 8.909 14.355 336.637 336.637 0 0 1-28.019-11.515 9.589 9.589 0 0 0-11.263 2.334 9.566 9.566 0 0 0-1.019 11.431c16.21 26.435 46.788 51.332 80.727 51.332 1.602 0 3.213-.063 4.829-.176 9.351 8.72 19.956 17.273 31.599 25.455l.005.003a250.306 250.306 0 0 0 6.398 4.335l-4.912 13.31a11.035 11.035 0 0 0 1.298 10.124 11.032 11.032 0 0 0 9.048 4.723h168.541c3.605 0 6.987-1.765 9.048-4.723a11.035 11.035 0 0 0 1.298-10.124l-5.042-13.663a246.465 246.465 0 0 0 5.86-3.982l.005-.003c11.643-8.182 22.247-16.735 31.598-25.454 1.616.114 3.226.176 4.829.176 33.937 0 64.519-24.899 80.728-51.333a9.565 9.565 0 0 0-1.021-11.43c-2.851-3.201-7.377-4.14-11.261-2.334a336.515 336.515 0 0 1-28.02 11.515 272.795 272.795 0 0 0 8.909-14.355c35.004-7.93 58.75-42.337 66.939-73.822a9.557 9.557 0 0 0-4.315-10.641zm-26.023-19.859c.15-.99.297-1.979.436-2.963a321.778 321.778 0 0 0 .72-5.512 303.654 303.654 0 0 0 .601-5.436 257.567 257.567 0 0 0 .481-5.369c.034-.435.079-.878.111-1.311a322.829 322.829 0 0 0 19.446-26.442c-2.484 18.036-9.537 36.156-22.039 48.697.087-.558.16-1.108.244-1.664zm-136.22-2.541v-28.814l38.026-.083v21.362a77.565 77.565 0 0 1-27.344 59.161 77.124 77.124 0 0 1-29.649 15.678c12.211-20.056 18.967-43.334 18.967-67.304zm-174.512 51.626a77.57 77.57 0 0 1-27.344-59.161v-21.362l38.025.083v28.814c0 23.97 6.757 47.249 18.968 67.305a77.132 77.132 0 0 1-29.649-15.679zm25.72-51.626v-47.691h9.811c4.153 0 7.519-3.366 7.519-7.519s-3.366-7.519-7.519-7.519h-19.491v-11.696h153.114v11.696H233.92c-4.153 0-7.519 3.366-7.519 7.519s3.366 7.519 7.519 7.519h88.958v47.691c0 36.17-17.385 70.572-46.506 92.024-12.184 8.976-28.557 8.976-40.744 0-29.119-21.453-46.504-55.854-46.504-92.024zM16.072 162.307a322.719 322.719 0 0 0 19.446 26.442c.033.442.078.894.113 1.338a233.447 233.447 0 0 0 .479 5.341 271.802 271.802 0 0 0 .97 8.356c.113.86.228 1.721.349 2.587.14.993.289 1.992.44 2.992.083.549.155 1.091.242 1.642-12.503-12.543-19.555-30.661-22.039-48.698zm54.752 41.634c-.878 15.831-3.833 30.919-8.683 44.395-.126-.405-.255-.811-.38-1.216a292.715 292.715 0 0 1-1.458-4.908 248.807 248.807 0 0 1-1.345-4.862 244.009 244.009 0 0 1-1.799-7.18c-.087-.373-.17-.743-.255-1.115 4.349-8.775 8.959-17.095 13.92-25.114zm-21.07-41.668a279.833 279.833 0 0 1 .119-5.222 265.47 265.47 0 0 1 .366-7.637c.054-.852.112-1.699.174-2.543.03-.408.065-.812.097-1.219 6.826-7.337 13.778-14.164 20.993-20.608-5.731 15.52-13.072 29.41-21.77 41.202 0-.441-.003-.882-.001-1.321.003-.887.011-1.772.022-2.652zm-20.84 92.492a334.344 334.344 0 0 0 26.194 18.958c.155.396.324.796.481 1.192a266.69 266.69 0 0 0 2.001 4.897 282.82 282.82 0 0 0 3.322 7.567c.359.787.72 1.574 1.089 2.363.41.877.829 1.756 1.25 2.636.236.493.461.983.701 1.477-15.44-8.134-27.395-22.995-35.038-39.09zm64.287 22.879c3.717 15.199 5.241 30.396 4.493 44.714-.234-.344-.471-.689-.703-1.033a273.29 273.29 0 0 1-6.774-10.573 270.011 270.011 0 0 1-2.483-4.178c-.201-.346-.396-.691-.594-1.037 1.626-9.606 3.633-18.847 6.061-27.893zm-25.389 60.587a340.312 340.312 0 0 0 30.524 10.464c.253.321.52.642.776.964a258.277 258.277 0 0 0 5.253 6.387 261.381 261.381 0 0 0 3.584 4.137c.56.634 1.122 1.268 1.692 1.902.677.753 1.364 1.505 2.054 2.256.353.384.693.769 1.05 1.153-17.168-3.335-32.945-14.096-44.933-27.263zm84.879 44.157a262.429 262.429 0 0 1-3.985-3.28 258.59 258.59 0 0 1-5.79-5.004 250.784 250.784 0 0 1-3.675-3.342c-.289-.269-.572-.538-.859-.807-1.298-9.714-2.11-19.19-2.445-28.608 8.087 13.565 14.122 27.791 17.76 41.845-.335-.268-.673-.536-1.006-.804zm25.127 41.948l9.557-25.896h137.92l9.557 25.896H177.818zm195.802-54.381c-.294.276-.584.552-.881.827a237.36 237.36 0 0 1-7.472 6.655 281.405 281.405 0 0 1-3.954 3.318c-.662.545-1.329 1.088-2.001 1.631-.333.269-.671.536-1.007.805 3.638-14.054 9.672-28.279 17.76-41.845-.335 9.418-1.146 18.892-2.445 28.609zm45.181-92.311c2.429 9.046 4.435 18.286 6.061 27.894-.193.337-.383.673-.578 1.01a266.055 266.055 0 0 1-2.497 4.204 263.435 263.435 0 0 1-6.771 10.568c-.233.346-.471.692-.707 1.039-.749-14.318.775-29.516 4.492-44.715zm25.39 60.586c-11.988 13.169-27.764 23.931-44.934 27.265.387-.418.758-.836 1.141-1.254a253.91 253.91 0 0 0 3.714-4.126 260.39 260.39 0 0 0 3.576-4.132 275.297 275.297 0 0 0 3.431-4.126c.578-.71 1.149-1.419 1.714-2.129.274-.344.561-.689.832-1.033a340.466 340.466 0 0 0 30.526-10.465zm-3.692-213.185c7.215 6.443 14.168 13.271 20.993 20.608.033.414.068.826.099 1.242a252.628 252.628 0 0 1 .68 18.041c.001.435-.001.873-.002 1.31-8.698-11.791-16.039-25.682-21.77-41.201zm.68 78.896c4.961 8.019 9.572 16.341 13.921 25.115-.085.372-.167.742-.255 1.115a241.249 241.249 0 0 1-1.798 7.172 257.55 257.55 0 0 1-2.068 7.337c-.241.81-.486 1.623-.736 2.437-.124.405-.254.813-.381 1.219-4.851-13.476-7.805-28.563-8.683-44.395zm6.872 89.915c.239-.492.462-.98.697-1.47.425-.886.847-1.771 1.259-2.654.364-.779.72-1.556 1.074-2.332a276.99 276.99 0 0 0 2.211-4.969 251.853 251.853 0 0 0 2.081-4.937c.353-.862.7-1.722 1.04-2.579.157-.396.326-.796.48-1.191a334.272 334.272 0 0 0 26.194-18.958c-7.642 16.093-19.597 30.955-35.036 39.09z"/>
</svg>