<svg class="conveyor-svg overview-icon" xmlns="http://www.w3.org/2000/svg" viewBox="0 0 496 496" fill="#eeeeee">
  <path d="M374 250.136l26.728-26.736-56.568-56.568-26.736 26.728c-9.328-5.152-19.2-9.176-29.432-12.128v-37.088c25.84-13.904 40-36.736 40-64.776 0-33.784-21.432-64.064-53.328-75.36L264 .432V65.8l-16 5.336-16-5.336V.432l-10.672 3.776C189.432 15.504 168 45.784 168 79.568c0 28.04 14.16 50.872 40 64.776v37.088c-10.232 2.96-20.104 6.976-29.432 12.128l-26.736-26.728L95.264 223.4l26.728 26.736a142.266 142.266 0 0 0-12.2 29.432H72v80h37.792a142.705 142.705 0 0 0 12.2 29.432l-26.728 26.736 56.568 56.568 26.736-26.728a142.266 142.266 0 0 0 29.432 12.2v37.792h80v-37.792a142.705 142.705 0 0 0 29.432-12.2l26.736 26.728 56.568-56.568L374.008 389a142.266 142.266 0 0 0 12.2-29.432H424v-80h-37.792A142.293 142.293 0 0 0 374 250.136zM184 79.568c0-23.048 12.488-44.064 32-55.352v53.12L248 88l32-10.664v-53.12c19.512 11.288 32 32.304 32 55.352 0 23.464-12.248 41.664-35.424 52.632L272 134.368v129.2h16V250.24c24.632 14.128 40 40.2 40 69.328 0 29.536-16.128 55.32-40 69.176V279.568h-16V395.88c-7.584 2.392-15.64 3.688-24 3.688s-16.416-1.296-24-3.688V134.368l-4.576-2.168C196.248 121.232 184 103.032 184 79.568zm224 264h-34.24l-1.48 6.12a126.738 126.738 0 0 1-15.112 36.44l-3.288 5.376 24.232 24.224-33.944 33.944-24.224-24.232-5.376 3.288a126.831 126.831 0 0 1-36.44 15.112L272 445.328v34.24h-48v-34.24l-6.12-1.48a126.738 126.738 0 0 1-36.44-15.112l-5.376-3.288-24.224 24.232-33.944-33.944 24.232-24.224-3.288-5.376a126.831 126.831 0 0 1-15.112-36.44l-1.488-6.128H88v-48h34.24l1.48-6.12a126.738 126.738 0 0 1 15.112-36.44l3.288-5.376-24.232-24.224 33.944-33.944 24.224 24.232 5.376-3.288a126.303 126.303 0 0 1 26.56-12.28v34.208c-34.184 15.624-56 49.256-56 87.24 0 52.936 43.064 96 96 96s96-43.064 96-96c0-37.992-21.816-71.624-56-87.24v-34.208a127.112 127.112 0 0 1 26.56 12.28l5.376 3.288 24.224-24.232 33.944 33.944-24.232 24.224 3.288 5.376c6.92 11.312 12 23.568 15.112 36.44l1.496 6.12H408v48zm-200-93.32v138.496c-23.872-13.856-40-39.64-40-69.176 0-29.12 15.368-55.192 40-69.32z"/>
  <path d="M32 393.04V103.568c0-4.408 3.592-8 8-8h65.472c3.312 9.288 12.112 16 22.528 16 13.232 0 24-10.768 24-24s-10.768-24-24-24c-10.416 0-19.216 6.712-22.528 16H40c-13.232 0-24 10.768-24 24V393.04c-9.288 3.312-16 12.112-16 22.528 0 13.232 10.768 24 24 24s24-10.768 24-24c0-10.416-6.712-19.216-16-22.528zm96-313.472c4.408 0 8 3.592 8 8s-3.592 8-8 8-8-3.592-8-8 3.592-8 8-8zm-104 344c-4.408 0-8-3.592-8-8 0-4.408 3.592-8 8-8s8 3.592 8 8c0 4.408-3.592 8-8 8z"/>
  <path d="M48 111.568h16v16H48zM48 143.568h16v16H48zM48 175.568h16v16H48zM480 393.04V103.568c0-13.232-10.768-24-24-24h-65.472c-3.312-9.288-12.112-16-22.528-16-13.232 0-24 10.768-24 24s10.768 24 24 24c10.416 0 19.216-6.712 22.528-16H456c4.408 0 8 3.592 8 8V393.04c-9.288 3.312-16 12.112-16 22.528 0 13.232 10.768 24 24 24s24-10.768 24-24c0-10.416-6.712-19.216-16-22.528zM368 95.568c-4.408 0-8-3.592-8-8s3.592-8 8-8c4.408 0 8 3.592 8 8s-3.592 8-8 8zm104 328c-4.408 0-8-3.592-8-8 0-4.408 3.592-8 8-8 4.408 0 8 3.592 8 8 0 4.408-3.592 8-8 8z"/>
  <path d="M432 111.568h16v16h-16zM432 143.568h16v16h-16zM432 175.568h16v16h-16zM240 367.568h16v16h-16zM240 335.568h16v16h-16zM240 303.568h16v16h-16z"/>
</svg>