<svg class="expand-svg overview-icon" xmlns="http://www.w3.org/2000/svg" viewBox="0 0 217.4 217.5" fill="#eeeeee">
  <path d="M68.7 72.2c-.9 0-1.8-.3-2.5-1L1.6 6.7c-1.4-1.4-1.4-3.6 0-5s3.6-1.4 5 0l64.5 64.5c1.4 1.4 1.4 3.6 0 5-.6.7-1.5 1-2.4 1z" class="st0"/>
  <path d="M3.5 62.7c-1.9 0-3.5-1.6-3.5-3.5V3.6C0 1.7 1.6.1 3.5.1S7 1.6 7 3.6v55.6c0 1.9-1.5 3.5-3.5 3.5z" class="st0"/>
  <path d="M58.6 7.1h-55C1.7 7.1.1 5.5.1 3.6S1.7.1 3.6.1h55.1c1.9 0 3.5 1.6 3.5 3.5s-1.6 3.5-3.6 3.5zM148.7 72.5c-.9 0-1.8-.3-2.5-1-1.4-1.4-1.4-3.6 0-5L210.8 2c1.4-1.4 3.6-1.4 4.9 0 1.4 1.4 1.4 3.6 0 5l-64.5 64.5c-.7.7-1.6 1-2.5 1z" class="st0"/>
  <path d="M213.9 7h-55.6c-1.9 0-3.5-1.6-3.5-3.5s1.6-3.5 3.5-3.5h55.6c1.9 0 3.5 1.6 3.5 3.5S215.8 7 213.9 7z" class="st0"/>
  <path d="M213.9 62.2c-1.9 0-3.5-1.6-3.5-3.5V3.6c0-1.9 1.6-3.5 3.5-3.5s3.5 1.6 3.5 3.5v55.1c0 1.9-1.6 3.5-3.5 3.5zM213.3 216.8c-.9 0-1.8-.3-2.5-1l-64.5-64.5c-1.4-1.4-1.4-3.6 0-4.9 1.4-1.4 3.6-1.4 4.9 0l64.5 64.5c1.4 1.4 1.4 3.6 0 4.9-.6.7-1.5 1-2.4 1z" class="st0"/>
  <path d="M213.9 217.5c-1.9 0-3.5-1.6-3.5-3.5v-55.6c0-1.9 1.6-3.5 3.5-3.5s3.5 1.6 3.5 3.5V214c0 1.9-1.6 3.5-3.5 3.5z" class="st0"/>
  <path d="M213.9 217.5h-55.1c-1.9 0-3.5-1.6-3.5-3.5s1.6-3.5 3.5-3.5h55.1c1.9 0 3.5 1.6 3.5 3.5s-1.6 3.5-3.5 3.5zM4.1 217c-.9 0-1.8-.3-2.5-1-1.4-1.4-1.4-3.6 0-4.9l64.5-64.5c1.4-1.4 3.6-1.4 5 0s1.4 3.6 0 4.9L6.6 215.9c-.7.7-1.6 1.1-2.5 1.1z" class="st0"/>
  <path d="M59.1 217.5H3.5C1.6 217.5 0 216 0 214s1.6-3.5 3.5-3.5h55.6c1.9 0 3.5 1.6 3.5 3.5s-1.6 3.5-3.5 3.5z" class="st0"/>
  <path d="M3.5 217.5C1.6 217.5 0 216 0 214v-55c0-1.9 1.6-3.5 3.5-3.5S7 157 7 159v55c0 2-1.6 3.5-3.5 3.5z" class="st0"/>
</svg>