<svg class="interest-svg overview-icon" xmlns="http://www.w3.org/2000/svg" viewBox="0 0 512.5 510.2" fill="#eeeeee">
  <path d="M8.5 510.2c-2.2 0-4.4-.8-6.1-2.5-3.3-3.3-3.3-8.7.1-12L473 31.9c3.3-3.3 8.7-3.3 12 .1 3.3 3.3 3.3 8.7-.1 12L14.5 507.7c-1.7 1.7-3.8 2.5-6 2.5zM292 18.4c-4.7 0-8.5-3.8-8.5-8.5s3.8-8.5 8.5-8.5l208.5-.2c4.7 0 8.5 3.8 8.5 8.5s-3.8 8.5-8.5 8.5l-208.5.2zM117.2 220.5c-51.4 0-93.2-41.8-93.2-93.2s41.8-93.2 93.2-93.2 93.2 41.8 93.2 93.2c-.1 51.4-41.9 93.2-93.2 93.2zm0-169.3c-42 0-76.2 34.2-76.2 76.2s34.2 76.2 76.2 76.2 76.2-34.2 76.2-76.2-34.2-76.2-76.2-76.2zm249 445c-51.4 0-93.2-41.8-93.2-93.2s41.8-93.2 93.2-93.2 93.2 41.8 93.2 93.2-41.9 93.2-93.2 93.2zm0-169.4c-42 0-76.2 34.2-76.2 76.2s34.2 76.2 76.2 76.2 76.2-34.2 76.2-76.2c-.1-42-34.2-76.2-76.2-76.2z"/>
  <path d="M502.5 228.2c-5.5 0-10-4.5-10-10V10c0-5.5 4.5-10 10-10s10 4.5 10 10v208.2c0 5.5-4.5 10-10 10z"/>
</svg>