<svg class="leaf-svg overview-icon" xmlns="http://www.w3.org/2000/svg" viewBox="0 0 469.8 469.8" fill="#eeeeee">
  <path d="M223.4 448h-.3c-3.2-.2-5.7-2.8-5.7-6 0-12 .3-23.6 1-34.9-.4-20.2-2.3-47.9-8.4-78.8-7.3-36.8-19.1-70.9-35-101.4-19.8-38-46.2-70.3-78.3-96.2-2.6-2.1-3-5.9-.9-8.4 2.1-2.6 5.9-3 8.4-.9 33.5 27 61 60.7 81.6 100.2 16.4 31.5 28.6 66.8 36.1 104.8 1.4 7.3 2.7 14.5 3.7 21.4 3.2-17.1 7.5-33.2 12.6-48.2 11.1-32.2 26.7-59.4 46.2-80.7 33.7-36.7 67.4-43.4 68.8-43.7 3.3-.6 6.4 1.5 7 4.8.6 3.3-1.5 6.4-4.8 7-.1 0-8 1.6-19.6 7.4-10.7 5.3-26.9 15.4-43.1 33.3-18.3 20.2-32.9 45.9-43.4 76.5-10.2 29.7-16.5 64-18.8 102.4.4 21.6-1 35-1.1 36.1-.4 3-2.9 5.3-6 5.3z" class="st0"/>
  <path d="M105.4 237.3c-11.9 0-24.8-2.5-37.4-9.6C25.9 203.9 4.5 138.2 4.5 32.5v-5.8l5.8-.2c1.4 0 35.2-.9 74.9 6.1 54.1 9.6 91 28.7 109.6 56.7 18.5 27.8 18 63.6-1.4 106.2-1.4 3-4.9 4.3-7.9 3-3-1.4-4.3-4.9-3-7.9 17.6-38.6 18.3-70.4 2.3-94.6C149.4 42.6 42.7 38.6 16.5 38.5c.4 52.7 6.4 95.1 17.9 126 9.5 25.6 22.7 43.3 39.4 52.8 35.1 19.9 75.2-3.6 75.6-3.9 2.8-1.7 6.5-.8 8.2 2.1 1.7 2.8.8 6.5-2 8.2-1.3.7-23.2 13.6-50.2 13.6zM359.2 273c-20.5 0-43.6-5.8-69.2-17.5-3-1.4-4.3-4.9-3-7.9 1.4-3 4.9-4.3 7.9-3 45.1 20.6 81.1 21.8 107.1 3.7 52.5-36.7 51.3-142.3 50.2-166.7-75.9-6.2-129.1 7.6-158.1 41.2-35.1 40.6-21.9 96.8-21.8 97.4.8 3.2-1.2 6.5-4.4 7.2-3.2.8-6.5-1.2-7.2-4.4-.6-2.5-14.7-62.8 24.4-108 32.3-37.4 90.7-52.5 173.5-44.9l5 .5.4 5c.1 1.4 2.6 34.4-2.7 73.4-7.2 53.2-24.8 89.9-52.3 109.1-14.3 9.9-30.9 14.9-49.8 14.9z" class="st0"/>
</svg>