<svg class="medal-svg overview-icon" xmlns="http://www.w3.org/2000/svg" viewBox="0 0 480.006 480.006" fill="#eeeeee">
  <path d="M478.66 395.595l-58.464-87.728 10.248-3.2a8 8 0 0 0 5.072-10.536l-17.976-46.232 36.608-34.04a8 8 0 0 0 0-11.712l-36.608-34.032 17.984-46.232a8.001 8.001 0 0 0-5.072-10.536l-48.128-15.008-4.208-49.36a8.046 8.046 0 0 0-2.984-5.6 7.936 7.936 0 0 0-6.088-1.672l-50.088 6.936-25.647-42.752a8 8 0 0 0-11.264-2.568l-42.04 27.672-42.032-27.672a8 8 0 0 0-11.264 2.568l-25.648 42.768-50.08-6.936a8 8 0 0 0-9.072 7.248l-4.216 49.36-48.088 15.008a8 8 0 0 0-5.072 10.536l17.976 46.232-36.648 34.04a8 8 0 0 0 0 11.712l36.608 34.032-17.984 46.232a8.001 8.001 0 0 0 5.072 10.536l10.616 3.304-58.984 95.848a8 8 0 0 0 8.248 12.064L89.7 401.283l14.464 72.32a8.001 8.001 0 0 0 6.288 6.28 7.914 7.914 0 0 0 1.552.12 8 8 0 0 0 6.656-3.56l56.128-84.192 11.912 19.864a8 8 0 0 0 6.904 3.888 7.994 7.994 0 0 0 4.4-1.32l42-27.672 42.032 27.672a8 8 0 0 0 11.264-2.568l11.92-19.872 56.128 84.2a8 8 0 0 0 8.208 3.408 8.001 8.001 0 0 0 6.288-6.28l14.56-72.952 80.88 7.384a8.001 8.001 0 0 0 7.376-12.408zm-362.575 55.896l-12.24-61.088a8 8 0 0 0-9.272-6.304l-70.36 12.8 51.72-84.016 21.752 6.784 4.208 49.36a8.046 8.046 0 0 0 2.984 5.6 8 8 0 0 0 6.088 1.672l50.088-6.936 4.632 7.728-49.6 74.4zm191.864-94.872l-24.08 40.144-39.464-26.016a8 8 0 0 0-8.8 0l-39.472 25.984-24.08-40.152a8 8 0 0 0-6.856-3.888 7.407 7.407 0 0 0-1.104.08l-46.968 6.496-3.952-46.312a8 8 0 0 0-5.6-6.96l-45.064-14.064 16.8-43.296a8 8 0 0 0-2.008-8.76l-34.24-31.872 34.28-31.872a8 8 0 0 0 2.008-8.76l-16.8-43.312 45.08-14.056a8 8 0 0 0 5.6-6.96l3.952-46.312 46.968 6.504a8 8 0 0 0 8-3.816l24.08-40.144 39.376 25.984a8 8 0 0 0 8.8 0l39.472-25.984 24.08 40.152a8.055 8.055 0 0 0 7.96 3.808l46.968-6.496 3.952 46.312a8 8 0 0 0 5.6 6.96l45.08 14.064-16.848 43.296a8 8 0 0 0 2.008 8.76l34.272 31.872-34.28 31.872a8 8 0 0 0-2.008 8.76l16.8 43.312-45.04 14.056a8 8 0 0 0-5.6 6.96l-3.952 46.312-46.96-6.472a8.054 8.054 0 0 0-7.96 3.816zm76.776 27.384a8.112 8.112 0 0 0-8.56 6.4l-12.216 61.064-49.6-74.4 4.624-7.712 50.08 6.936a8 8 0 0 0 9.072-7.248l4.216-49.36 21.96-6.848 51.768 77.688-71.344-6.52z"/>
  <path d="M360.004 168.003c0-13.255-10.745-24-24-24h-56v-32c.022-22.069-17.851-39.978-39.92-40h-.08a8 8 0 0 0-8 8v38.112l-14.4 28.736-25.744 20.6a7.944 7.944 0 0 0-7.856-7.448h-56a8 8 0 0 0-8 8v120a8 8 0 0 0 8 8h56a8 8 0 0 0 8-8h120c13.228-.066 23.934-10.772 24-24a23.722 23.722 0 0 0-3.2-11.744 22.397 22.397 0 0 0 4.064-3.248 23.567 23.567 0 0 0 3.936-28.752 22.397 22.397 0 0 0 4.064-3.248 23.567 23.567 0 0 0 3.936-28.752 22.397 22.397 0 0 0 4.064-3.248 23.552 23.552 0 0 0 7.136-17.008zm-183.999 112h-40v-104h40v104zm165.551-106.304a7.656 7.656 0 0 1-5.552 2.304h-32v16h24a8 8 0 0 1 8 8 7.79 7.79 0 0 1-2.448 5.696 7.656 7.656 0 0 1-5.552 2.304h-32v16h24a8 8 0 0 1 8 8 7.79 7.79 0 0 1-2.448 5.696 7.656 7.656 0 0 1-5.552 2.304h-32v16h24a8 8 0 0 1 8 8 7.79 7.79 0 0 1-2.448 5.696 7.656 7.656 0 0 1-5.552 2.304h-120v-84.16l37-29.592a8.044 8.044 0 0 0 2.16-2.672l16-32a7.997 7.997 0 0 0 .84-3.576V89.371a23.92 23.92 0 0 1 16 22.632v40a8 8 0 0 0 8 8h64a8 8 0 0 1 8 8 7.79 7.79 0 0 1-2.448 5.696z"/>
</svg>