<svg class="price-svg overview-icon" xmlns="http://www.w3.org/2000/svg" viewBox="0 0 480 480" fill="#eeeeee">
  <path d="M432 280h-56V8a8 8 0 0 0-8-8H112a8 8 0 0 0-8 8v272H48a8 8 0 0 0-5.536 13.776l192 184a8.004 8.004 0 0 0 11.072 0l192-184A8 8 0 0 0 432 280zM240 460.92L67.904 296H112a8 8 0 0 0 8-8V16h240v272a8 8 0 0 0 8 8h44.096L240 460.92z"/>
  <path d="M240 120c17.673 0 32 14.327 32 32h16c-.043-23.397-16.934-43.361-40-47.28V88h-16v16.72c-26.112 4.572-43.575 29.446-39.003 55.559C197 183.142 216.789 199.866 240 200c17.673 0 32 14.327 32 32s-14.327 32-32 32c-17.673 0-32-14.327-32-32h-16c.043 23.397 16.934 43.361 40 47.28V296h16v-16.72c26.112-4.572 43.575-29.446 39.003-55.559C283 200.858 263.211 184.134 240 184c-17.673 0-32-14.327-32-32s14.327-32 32-32zM136 32h16v16h-16zM168 32h16v16h-16zM200 32h16v16h-16zM232 32h16v16h-16zM264 32h16v16h-16zM296 32h16v16h-16zM328 32h16v16h-16z"/>
</svg>