<svg class="save-svg overview-icon" xmlns="http://www.w3.org/2000/svg" viewBox="0 0 463.377 463.377" fill="#eeeeee">
  <path d="M422.384 270.04l-.127-.031a7.08 7.08 0 0 0-8.52 5.24c-24.043 100.531-125.029 162.536-225.56 138.493a187.162 187.162 0 0 1-125.68-102.053l-14.16 2.96c45.781 101.299 165.012 146.306 266.312 100.526a201.276 201.276 0 0 0 112.848-136.526 7.08 7.08 0 0 0-5.113-8.609zM94.944 283.22a7.082 7.082 0 0 0-1.647-3.372l-27.56-30.72-27.24-30.4a7.08 7.08 0 0 0-12.32 2.16l-12.96 39.24-12.88 39.2a7.08 7.08 0 0 0 8 9.12l40.4-8.48 40.56-8.48a7.079 7.079 0 0 0 5.647-8.268zm-48.887 2.869l-28.44 6 9.04-27.6 9.08-27.56 19.36 21.6 19.36 21.6-28.4 5.96zM463.297 160.409a7.08 7.08 0 0 0-8.36-5.48l-40.4 8.48-40.36 8.28a7.08 7.08 0 0 0-4 11.64l27.56 30.72 27.24 30.4a7.08 7.08 0 0 0 12.32-2.16l12.84-39.24 12.84-39.24a7.042 7.042 0 0 0 .32-3.4zm-26.52 38.48l-9.04 27.56-19.36-21.6-19.36-21.6 28.4-5.96 28.4-5.96-9.04 27.56zM148.825 48.203A201.278 201.278 0 0 0 35.977 184.729a7.08 7.08 0 1 0 13.76 3.28c24.087-100.52 125.1-162.482 225.621-138.395a187.158 187.158 0 0 1 125.619 102.075l14.16-2.96C369.356 47.429 250.125 2.422 148.825 48.203z"/>
  <path d="M305.977 106.969a7.08 7.08 0 0 0-7.08-7.08h-91.56a7.08 7.08 0 0 0-6.72 4.88l-42.6 130.36a7.08 7.08 0 0 0 6.6 9.76h32l-28 109.08a7.08 7.08 0 0 0 12 7.04l118.36-137.68a7.08 7.08 0 0 0-5.32-12h-41.52l52.72-100.48a7.087 7.087 0 0 0 1.12-3.88zm-71.8 108.36a7.08 7.08 0 0 0 6.28 10.32h37.72l-88.72 103.16 22.96-89.12a7.08 7.08 0 0 0-6.84-8.8h-31.2l38.08-116.8h74.72l-53 101.24z"/>
</svg>