<svg class="university-svg overview-icon" xmlns="http://www.w3.org/2000/svg" viewBox="0 0 184.653 184.653" fill="#eeeeee">
  <path d="M125.401 184.653H23.134a3 3 0 0 1-3-3V3a3 3 0 0 1 3-3h138.385a3 3 0 0 1 3 3v141.55c.001.123-.006.245-.02.366v.002l-.001.006v.003l-.001.007v.006a3.136 3.136 0 0 1-.067.363l-.001.004-.001.003-.001.006v.001a3 3 0 0 1-.725 1.314l-.006.006-.006.006-.005.005-.002.002-.004.004-.002.002-.006.006-36.117 37.082a.179.179 0 0 0-.013.014l-.007.007-.006.006-.001.001-.005.005-.002.001-.004.005-.003.002-.003.003-.004.004-.001.001a2.993 2.993 0 0 1-1.385.77c-.004.002-.006.001-.009.002l-.008.002-.008.002c-.002.001-.006 0-.008.002l-.008.002a.078.078 0 0 0-.009.001l-.082.017-.009.002c.001.003-.005.001-.009.001-.002-.001-.005 0-.008.001l-.009.002-.008.001-.009.001c-.003.001-.005.002-.008.001a2.5 2.5 0 0 1-.527.053zm-99.267-6h96.268v-34.082a3 3 0 0 1 3-3h33.117V6H26.134v172.653zm102.268-31.082v26.702l26.007-26.702h-26.007zm4.67-16.381H40.698a3 3 0 1 1 0-6h92.375a3 3 0 1 1-.001 6zm10.388-13.542H40.698a3 3 0 1 1 0-6H143.46a3 3 0 1 1 0 6zM60.967 98.792a2.97 2.97 0 0 1-.409-.028l-22.902-3.151a3 3 0 0 1-2.526-3.593l7.134-33.734c-5.066-5.037-7.969-12.185-7.349-19.846 1.118-13.805 13.252-24.13 27.063-23.009 13.805 1.118 24.127 13.258 23.009 27.063a25.018 25.018 0 0 1-7.525 15.965l6.874 26.847a3 3 0 0 1-2.443 3.708L64.06 91.796l-.093 4.064a3 3 0 0 1-3 2.932zm-19.3-8.685l16.378 2.254.613-26.81a24.97 24.97 0 0 1-11.111-3.246l-5.88 27.802zm22.558-5.553l.256 1.104 13.223-2.063-5.439-21.245a25.044 25.044 0 0 1-7.596 2.791l-.444 19.413zm-4.306-63.207a18.977 18.977 0 0 0-12.352 4.554 18.992 18.992 0 0 0-6.672 13.023c-.851 10.507 7.006 19.748 17.514 20.599 10.505.855 19.747-7.006 20.598-17.513.851-10.507-7.005-19.748-17.513-20.599a19.358 19.358 0 0 0-1.575-.064zm83.541 41.86h-42.39a3 3 0 1 1 0-6h42.39a3 3 0 1 1 0 6zm-6.054-15.968H101.07a3 3 0 1 1 0-6h36.335a3 3 0 0 1 .001 6zm6.054-16.938h-42.39a3 3 0 1 1 0-6h42.39a3 3 0 1 1 0 6z"/>
</svg>